<?xml version="1.0" encoding="UTF-8"?>
<svg xmlns="http://www.w3.org/2000/svg" xmlns:xlink="http://www.w3.org/1999/xlink" width="512px" height="512px" viewBox="0 0 512 512" version="1.1">
<defs>
<linearGradient id="linear0" gradientUnits="userSpaceOnUse" x1="16.0052" y1="8.18063" x2="-0.00988542" y2="7.7467" gradientTransform="matrix(32,0,0,32,0,0)">
<stop offset="0" style="stop-color:rgb(0%,62.352941%,95.294118%);stop-opacity:1;"/>
<stop offset="0.541176" style="stop-color:rgb(49.411765%,31.372549%,77.254902%);stop-opacity:1;"/>
<stop offset="1" style="stop-color:rgb(99.215686%,0.392157%,58.823529%);stop-opacity:1;"/>
</linearGradient>
</defs>
<g id="surface1">
<path style=" stroke:none;fill-rule:nonzero;fill:url(#linear0);" d="M 128 0 L 384 0 C 454.691406 0 512 57.308594 512 128 L 512 384 C 512 454.691406 454.691406 512 384 512 L 128 512 C 57.308594 512 0 454.691406 0 384 L 0 128 C 0 57.308594 57.308594 0 128 0 Z M 128 0 "/>
<path style=" stroke:none;fill-rule:evenodd;fill:rgb(100%,100%,100%);fill-opacity:1;" d="M 416 96 L 384.796875 207.132812 L 289.957031 207.132812 C 259.976562 208.808594 234.890625 212.71875 208.582031 235.617188 C 197.566406 245.109375 184.105469 258.511719 176.152344 270.800781 C 153.515625 305.980469 140.664062 344.515625 135.769531 384.726562 L 173.09375 385.28125 L 177.375 374.675781 C 204.296875 318.828125 242.84375 313.242188 302.808594 311.007812 L 313.207031 273.035156 C 266.09375 273.035156 236.113281 273.589844 193.285156 263.539062 C 196.957031 257.953125 205.523438 249.019531 216.535156 240.082031 C 229.382812 242.875 242.84375 242.875 255.695312 243.433594 L 351.757812 242.875 L 324.835938 340.046875 C 258.140625 340.609375 222.042969 338.375 199.402344 404.832031 L 196.34375 416 L 96 416 C 99.058594 394.777344 102.117188 375.230469 106.402344 354.570312 C 115.578125 315.476562 125.367188 287.554688 145.558594 255.164062 C 152.902344 242.875 171.871094 222.773438 182.882812 213.835938 C 236.726562 169.71875 295.464844 174.183594 363.378906 174.183594 L 376.839844 125.597656 C 329.117188 125.039062 304.640625 125.597656 248.351562 128.949219 C 224.488281 130.066406 201.851562 134.535156 185.332031 145.144531 C 166.363281 157.429688 156.574219 187.589844 173.09375 211.601562 C 165.75 218.304688 155.960938 230.03125 149.84375 236.734375 C 131.488281 211.601562 129.652344 187.03125 134.546875 165.808594 C 143.113281 131.183594 176.765625 105.492188 234.277344 101.027344 C 289.957031 96.558594 362.15625 96.558594 416 96 Z M 416 96 "/>
</g>
</svg>
