<svg width="124" height="65" viewBox="0 0 124 65" fill="none" xmlns="http://www.w3.org/2000/svg">
<g clip-path="url(#clip0_507_24)">
<path d="M56.6922 49.6201C54.6594 49.6201 52.8525 49.2833 51.3843 48.6097C49.9162 47.8239 48.7869 46.7012 48.1093 45.2418C47.4317 43.7824 47.3188 41.9862 47.7705 39.741C48.4481 36.8221 49.6903 34.3524 51.6102 32.5562C53.5301 30.76 56.2404 29.9741 59.8543 29.9741C61.7741 29.9741 63.3552 30.3109 64.7104 31.0967C65.9526 31.7703 66.8561 32.7807 67.3078 34.1278C67.8725 35.3627 67.8725 36.8221 67.5337 38.5061L66.8561 41.8739H53.3042C53.4171 43.1088 53.7559 44.0069 54.6594 44.456C55.5628 45.0173 57.031 45.2418 59.1767 45.2418C60.1931 45.2418 61.2095 45.1296 62.3388 44.905C63.4681 44.7928 64.4845 44.5682 65.275 44.2315L64.7104 48.3852C63.694 48.722 62.2259 49.171 60.8707 49.3955C59.6284 49.5078 58.1603 49.6201 56.6922 49.6201ZM54.0947 38.1693H62L62.2259 37.2712C62.4517 36.3731 62.2259 35.5872 61.7741 35.1382C61.3224 34.5769 60.4189 34.2401 59.1767 34.2401C57.5956 34.2401 56.4663 34.5769 55.6758 35.2505C54.9982 35.8118 54.4335 36.8221 54.0947 38.1693Z" fill="white"/>
<path d="M67.4208 49.5078L71.4864 29.9741H78.0364L77.4718 32.1071C78.4882 31.5458 79.6175 31.0967 80.9727 30.76C82.2149 30.3109 83.5701 29.9741 84.8124 29.9741L83.796 34.8014C83.1184 34.9137 82.2149 35.0259 81.4244 35.1382C80.521 35.3627 79.6175 35.5872 78.827 35.8118C77.9235 36.0363 77.2459 36.2608 76.6813 36.5976L73.9709 49.5078H67.4208Z" fill="white"/>
<path d="M92.266 49.62C90.1203 49.62 88.6521 48.9465 87.6357 47.8238C86.7323 46.5889 86.5064 44.905 86.9581 42.8843L88.6521 34.8014H86.0547L87.184 29.9741H89.6685L90.4591 26.3817L97.235 24.6978L96.1057 29.8618L100.736 29.9741L99.3807 34.8014H95.0893L93.5082 42.4352C93.2824 43.3333 93.2824 43.8946 93.5082 44.3437C93.847 44.6805 94.5246 44.7927 95.541 44.7927C96.3316 44.7927 97.235 44.6805 98.1385 44.456L97.1221 48.7219C95.7669 49.2832 94.1858 49.62 92.266 49.62Z" fill="white"/>
<path d="M106.947 49.7323C104.35 49.7323 102.43 48.9464 101.188 47.3748C100.058 45.9154 99.7195 43.5578 100.397 40.5268C100.849 38.506 101.526 36.5976 102.656 35.0259C103.672 33.4542 104.914 32.2193 106.495 31.3212C108.077 30.4231 109.996 29.8618 112.142 29.8618C113.158 29.8618 114.062 30.0863 114.74 30.3109C115.417 30.5354 116.095 30.8722 116.659 31.4335L116.885 29.8618L123.435 29.9741L119.257 49.5078H114.175L113.723 47.7116C111.803 49.0587 109.545 49.7323 106.947 49.7323ZM110.109 45.0173C111.464 45.0173 112.82 44.5682 114.062 43.5578L115.643 35.924C115.078 35.0259 114.175 34.6891 112.82 34.6891C111.239 34.6891 109.996 35.1382 109.093 36.0363C108.189 37.0466 107.399 38.506 106.947 40.5268C106.608 42.2107 106.721 43.4456 107.173 44.0069C107.625 44.6805 108.641 45.0173 110.109 45.0173Z" fill="white"/>
<path fill-rule="evenodd" clip-rule="evenodd" d="M59.7414 0.336914L53.9818 22.6772H36.4772C30.9435 23.0139 26.3133 23.7998 21.4572 28.4025C19.4244 30.311 16.9399 33.0053 15.4718 35.4751C11.2933 42.5476 8.92169 50.2937 8.01823 58.3766L14.9071 58.4889L15.6976 56.3559C20.6667 45.1297 27.7814 44.007 38.8488 43.558L40.7687 35.9241C32.0729 35.9241 26.5392 36.0364 18.6339 34.0157C19.3115 32.893 20.8925 31.0968 22.9253 29.3006C25.2969 29.862 27.7814 29.862 30.153 29.9742L47.8834 29.862L42.9144 49.3956C30.6047 49.5079 23.9417 49.0589 19.7632 62.4181L19.1986 64.6633H0.677612C1.24228 60.3974 1.80694 56.4682 2.59747 52.3145C4.29146 44.4561 6.09838 38.843 9.82515 32.3317C11.1803 29.862 14.6813 25.8205 16.714 24.0243C26.6521 15.1556 37.4936 16.0537 50.0292 16.0537L52.5137 6.28683C43.7049 6.17457 39.1876 6.28683 28.7978 6.9604C24.3935 7.18493 20.215 8.08303 17.1658 10.216C13.6649 12.6858 11.8579 18.748 14.9071 23.5753C13.5519 24.9224 11.745 27.2799 10.6157 28.6271C7.2277 23.5753 6.88891 18.6357 7.79237 14.3697C9.37342 7.40945 15.5847 2.24538 26.2004 1.34728C36.4772 0.449177 49.8033 0.449177 59.7414 0.336914Z" fill="url(#paint0_linear_507_24)"/>
<g clip-path="url(#clip1_507_24)">
<path d="M56.6922 49.6201C54.6594 49.6201 52.8525 49.2833 51.3843 48.6097C49.9162 47.8239 48.7869 46.7012 48.1093 45.2418C47.4317 43.7824 47.3188 41.9862 47.7705 39.741C48.4481 36.8221 49.6903 34.3524 51.6102 32.5562C53.5301 30.76 56.2404 29.9741 59.8543 29.9741C61.7741 29.9741 63.3552 30.3109 64.7104 31.0967C65.9526 31.7703 66.8561 32.7807 67.3078 34.1278C67.8725 35.3627 67.8725 36.8221 67.5337 38.5061L66.8561 41.8739H53.3042C53.4171 43.1088 53.7559 44.0069 54.6594 44.456C55.5628 45.0173 57.031 45.2418 59.1767 45.2418C60.1931 45.2418 61.2095 45.1296 62.3388 44.905C63.4681 44.7928 64.4845 44.5682 65.275 44.2315L64.7104 48.3852C63.694 48.722 62.2259 49.171 60.8707 49.3955C59.6284 49.5078 58.1603 49.6201 56.6922 49.6201ZM54.0947 38.1693H62L62.2259 37.2712C62.4517 36.3731 62.2259 35.5872 61.7741 35.1382C61.3224 34.5769 60.4189 34.2401 59.1767 34.2401C57.5956 34.2401 56.4663 34.5769 55.6758 35.2505C54.9982 35.8118 54.4335 36.8221 54.0947 38.1693Z" fill="#1C8EE9"/>
<path d="M67.4208 49.5078L71.4864 29.9741H78.0364L77.4718 32.1071C78.4882 31.5458 79.6175 31.0967 80.9727 30.76C82.2149 30.3109 83.5701 29.9741 84.8124 29.9741L83.796 34.8014C83.1184 34.9137 82.2149 35.0259 81.4244 35.1382C80.521 35.3627 79.6175 35.5872 78.827 35.8118C77.9235 36.0363 77.2459 36.2608 76.6813 36.5976L73.9709 49.5078H67.4208Z" fill="#1C8EE9"/>
<path d="M92.266 49.62C90.1203 49.62 88.6521 48.9465 87.6357 47.8238C86.7323 46.5889 86.5064 44.905 86.9581 42.8843L88.6521 34.8014H86.0547L87.184 29.9741H89.6685L90.4591 26.3817L97.235 24.6978L96.1057 29.8618L100.736 29.9741L99.3807 34.8014H95.0893L93.5082 42.4352C93.2824 43.3333 93.2824 43.8946 93.5082 44.3437C93.847 44.6805 94.5246 44.7927 95.541 44.7927C96.3316 44.7927 97.235 44.6805 98.1385 44.456L97.1221 48.7219C95.7669 49.2832 94.1858 49.62 92.266 49.62Z" fill="#1C8EE9"/>
<path d="M106.947 49.7323C104.35 49.7323 102.43 48.9464 101.188 47.3748C100.058 45.9154 99.7195 43.5578 100.397 40.5268C100.849 38.506 101.526 36.5976 102.656 35.0259C103.672 33.4542 104.914 32.2193 106.495 31.3212C108.077 30.4231 109.996 29.8618 112.142 29.8618C113.158 29.8618 114.062 30.0863 114.74 30.3109C115.417 30.5354 116.095 30.8722 116.659 31.4335L116.885 29.8618L123.435 29.9741L119.257 49.5078H114.175L113.723 47.7116C111.803 49.0587 109.545 49.7323 106.947 49.7323ZM110.109 45.0173C111.464 45.0173 112.82 44.5682 114.062 43.5578L115.643 35.924C115.078 35.0259 114.175 34.6891 112.82 34.6891C111.239 34.6891 109.996 35.1382 109.093 36.0363C108.189 37.0466 107.399 38.506 106.947 40.5268C106.608 42.2107 106.721 43.4456 107.173 44.0069C107.625 44.6805 108.641 45.0173 110.109 45.0173Z" fill="#1C8EE9"/>
<path fill-rule="evenodd" clip-rule="evenodd" d="M59.7414 0.336914L53.9818 22.6772H36.4772C30.9435 23.0139 26.3133 23.7998 21.4572 28.4025C19.4244 30.311 16.9399 33.0053 15.4718 35.4751C11.2933 42.5476 8.92169 50.2937 8.01823 58.3766L14.9071 58.4889L15.6976 56.3559C20.6667 45.1297 27.7814 44.007 38.8488 43.558L40.7687 35.9241C32.0729 35.9241 26.5392 36.0364 18.6339 34.0157C19.3115 32.893 20.8925 31.0968 22.9253 29.3006C25.2969 29.862 27.7814 29.862 30.153 29.9742L47.8834 29.862L42.9144 49.3956C30.6047 49.5079 23.9417 49.0589 19.7632 62.4181L19.1986 64.6633H0.677612C1.24228 60.3974 1.80694 56.4682 2.59747 52.3145C4.29146 44.4561 6.09838 38.843 9.82515 32.3317C11.1803 29.862 14.6813 25.8205 16.714 24.0243C26.6521 15.1556 37.4936 16.0537 50.0292 16.0537L52.5137 6.28683C43.7049 6.17457 39.1876 6.28683 28.7978 6.9604C24.3935 7.18493 20.215 8.08303 17.1658 10.216C13.6649 12.6858 11.8579 18.748 14.9071 23.5753C13.5519 24.9224 11.745 27.2799 10.6157 28.6271C7.2277 23.5753 6.88891 18.6357 7.79237 14.3697C9.37342 7.40945 15.5847 2.24538 26.2004 1.34728C36.4772 0.449177 49.8033 0.449177 59.7414 0.336914Z" fill="url(#paint1_linear_507_24)"/>
</g>
</g>
<defs>
<linearGradient id="paint0_linear_507_24" x1="59.7604" y1="33.2264" x2="0.634313" y2="31.7554" gradientUnits="userSpaceOnUse">
<stop stop-color="white"/>
</linearGradient>
<linearGradient id="paint1_linear_507_24" x1="59.7604" y1="33.2264" x2="0.634313" y2="31.7554" gradientUnits="userSpaceOnUse">
<stop stop-color="#009FF3"/>
<stop offset="0.541176" stop-color="#7E50C5"/>
<stop offset="1" stop-color="#FD0196"/>
</linearGradient>
<clipPath id="clip0_507_24">
<rect width="124" height="65" fill="white"/>
</clipPath>
<clipPath id="clip1_507_24">
<rect width="124" height="65" fill="white"/>
</clipPath>
</defs>
</svg>
